<svg id="Capa_1" data-name="Capa 1" xmlns="http://www.w3.org/2000/svg" viewBox="0 0 1960 293"><title>logo</title><g id="Microplus"><path d="M1926.13,168.85q-2.49-6.1-6-6.11H1813.87q-2.65,0-4.69-4.8a28.91,28.91,0,0,1-2-11.35V35.3a38.31,38.31,0,0,0-2.56-14.84q-2.58-6.1-5.93-6.11-3.56,0-6,6.11a39.34,39.34,0,0,0-2.48,14.84V146.59a124,124,0,0,0,1.94,22.69,90.72,90.72,0,0,0,5.23,18.34,39.66,39.66,0,0,0,7.7,12.43q4.43,4.59,9.38,4.59h105.71q3.53,0,6-6.11a39.59,39.59,0,0,0,2.47-14.84A39.59,39.59,0,0,0,1926.13,168.85Z" fill="#005bac"/><path d="M1764.21,46.64a89.24,89.24,0,0,0-9.65-22.47q-5.67-8.94-12.92-9.82H1660.9q-7.62,0-13.64,8.73T1637,45.55a185.87,185.87,0,0,0-6.47,30.55,253.53,253.53,0,0,0-.09,66.12,195.14,195.14,0,0,0,6.11,30.12,89.16,89.16,0,0,0,9.65,22.48q5.67,8.94,12.93,9.82h42q3.54,0,6-6.11a39.58,39.58,0,0,0,2.48-14.84,39.58,39.58,0,0,0-2.48-14.84q-2.49-6.1-6-6.11h-36.47a11.68,11.68,0,0,1-10-5.46,43.84,43.84,0,0,1-6-13.31,92.78,92.78,0,0,1-3-17.24q-.8-9.37-.79-17.24t.79-17.24a92.92,92.92,0,0,1,3-17.24,44.07,44.07,0,0,1,6-13.31,11.69,11.69,0,0,1,10-5.45h71.53q6,0,9.91,5.45A42.74,42.74,0,0,1,1752.17,75a92.92,92.92,0,0,1,3,17.24q.79,9.39.8,17.24t-.8,17.24a92.78,92.78,0,0,1-3,17.24,42.52,42.52,0,0,1-6.11,13.31q-3.9,5.46-9.91,5.46a4.14,4.14,0,0,0-.87.09l-2.92-6.39A7.05,7.05,0,0,0,1723,153l-5.21,2.38a7.06,7.06,0,0,0-3.48,9.35L1737,214.24a7.06,7.06,0,0,0,9.35,3.49l5.2-2.38A7.06,7.06,0,0,0,1755,206l-3.45-7.54a31.61,31.61,0,0,0,2-2.55q6-8.73,10.27-22.48a186.72,186.72,0,0,0,6.46-30.55,253.53,253.53,0,0,0,.09-66.12A194.45,194.45,0,0,0,1764.21,46.64Z" fill="#005bac"/><rect x="1531.48" y="18.34" width="65.45" height="32.52" fill="#005bac"/><path d="M1598.71,112.32q-7-7.71-19-12.54T1549,95h-17.48v30.59h18.29a43.74,43.74,0,0,1,14,1.93,23.73,23.73,0,0,1,8.86,5.1,17.82,17.82,0,0,1,4.64,7.44,28.71,28.71,0,0,1,1.36,8.68q0,10.2-6.13,16.68t-19.22,6.47h-21.84v32.52h20.75q15.81,0,26.85-4.13a48.58,48.58,0,0,0,18.13-11.44,44.42,44.42,0,0,0,10.36-17.22,69.25,69.25,0,0,0,3.27-21.78,78.62,78.62,0,0,0-2.59-19.84A41.92,41.92,0,0,0,1598.71,112.32Z" fill="#005bac"/><path d="M1393,19.6v123q0,13.89-7.36,21.4t-22.9,7.49H1330q-16.1,0-23.31-7.49t-7.22-21.4V19.6h-32.72V145q0,58.62,59.43,58.61h38.71q29.71,0,44.71-14.72t15-43.89V19.6Z" fill="#005bac"/><path d="M1163.31,169a30.33,30.33,0,0,1-11.58-6.68,23.13,23.13,0,0,1-6.14-10.09,42.63,42.63,0,0,1-1.77-12.4V19.6h-32.17V140.09a84,84,0,0,0,3.68,25.49,50.37,50.37,0,0,0,11.86,20,55.56,55.56,0,0,0,21.13,13.22q12.95,4.77,31.21,4.77h73.33V171.44h-71.42Q1170.54,171.44,1163.31,169Z" fill="#005bac"/><path d="M1077.45,36.09a52.32,52.32,0,0,0-18.4-12q-11.19-4.5-26.72-4.5H938V51.77h95.68q13.1,0,19.22,7.22a25.88,25.88,0,0,1,6.14,17.31,29.86,29.86,0,0,1-1.5,9.41,24.1,24.1,0,0,1-4.5,8,21.6,21.6,0,0,1-7.91,5.72,28.61,28.61,0,0,1-11.72,2.19H967.18q-15.27,0-22.08,6.81t-6.82,22.35v72.79h32.17V137.09c0-3.09,1.54-4.63,4.64-4.63h57.24q16.08,0,27.4-5.18a53.26,53.26,0,0,0,18.4-13.36,50.27,50.27,0,0,0,10.22-18.53,71.21,71.21,0,0,0,3.13-20.72,65.15,65.15,0,0,0-3.4-21A46.58,46.58,0,0,0,1077.45,36.09Z" fill="#005bac"/><path d="M827.61,19.6H802.53q-40.35,0-61.74,22.9T719.39,112q0,46.35,21.4,69t61.74,22.63h25.08q40.33,0,61.74-22.63t21.4-69q0-46.6-21.4-69.51T827.61,19.6Zm38.57,137.8q-12.12,14-38.57,14H802.53q-27,0-39-13.9t-12-45.53q0-31.89,12.14-46.07t38.84-14.17h25.08q26.71,0,38.71,14.17t12,45.8Q878.31,143.38,866.18,157.4Z" fill="#005bac"/><path d="M683.13,121.28a49.87,49.87,0,0,0,12-13.22A57,57,0,0,0,701.94,92a69.78,69.78,0,0,0,2.18-17.31,65.15,65.15,0,0,0-3.4-21,46.58,46.58,0,0,0-10.63-17.59,52.36,52.36,0,0,0-18.41-12Q660.51,19.6,645,19.6H545.2V51.77H646.06q13.35,0,19.49,7.22a25.5,25.5,0,0,1,6.13,17,31.08,31.08,0,0,1-1.49,9.54,24.05,24.05,0,0,1-4.5,8.18,21.69,21.69,0,0,1-7.91,5.72,28.61,28.61,0,0,1-11.72,2.19H574.37q-15.27,0-22.08,6.81t-6.82,22.35v72.79h32.17V137.09q0-4.64,4.63-4.63h48l42,71.15h35.71L665.14,130A51.59,51.59,0,0,0,683.13,121.28Z" fill="#005bac"/><path d="M384.5,42.36q-21.4,22.77-21.4,69.38,0,46.35,21.4,69.11t61.75,22.76H517.4V171.44H446.25q-27,0-39-14t-12-45.66q0-31.89,12.13-45.93t38.85-14H517.4V19.6H446.25Q405.9,19.6,384.5,42.36Z" fill="#005bac"/><rect x="303.41" y="19.6" width="32.17" height="184" fill="#005bac"/><path d="M245.9,11.12q-4.64,0-9.27,6.28Q218.92,43,206.24,57.3t-22.9,21.52Q173.11,86,164,87.57a116.44,116.44,0,0,1-19.76,1.56,104.38,104.38,0,0,1-19.9-1.79q-9.27-1.78-19.76-9T81.38,56.85Q68.71,42.51,51.26,17.4a31.76,31.76,0,0,0-4.36-4.49A7.57,7.57,0,0,0,42,11.12q-5.44,0-9.26,6.28a28.78,28.78,0,0,0-3.82,15.24V185.08c0,6,1.27,11.06,3.82,15.25s5.63,6.27,9.26,6.27,6.73-2.08,9.27-6.27,3.82-9.26,3.82-15.25V78.82a243.12,243.12,0,0,0,23.31,26.9A121.57,121.57,0,0,0,100.19,123a78.92,78.92,0,0,0,21.54,9.19,92.6,92.6,0,0,0,22.49,2.69,87.53,87.53,0,0,0,21.53-2.69,79.32,79.32,0,0,0,21.4-9.19,129.46,129.46,0,0,0,22.08-17.27,224.76,224.76,0,0,0,23.58-26.9V185.08c0,6,1.27,11.06,3.82,15.25s5.63,6.27,9.27,6.27,6.72-2.08,9.27-6.27A28.86,28.86,0,0,0,259,185.08V32.64a28.87,28.87,0,0,0-3.81-15.24Q251.35,11.13,245.9,11.12Z" fill="#005bac"/></g><g id="Naranjas"><path d="M1476.72,120.87q11.71,4.68,30.25,4.68h11.19V95h-12.28a41.69,41.69,0,0,1-13.35-1.79,21.18,21.18,0,0,1-8.32-5,17.31,17.31,0,0,1-4.36-7.17,27.45,27.45,0,0,1-1.23-8.13q0-9.64,5.73-15.85t18.26-6.2h15.55V18.34H1503.7q-15.27,0-26.16,4a46.7,46.7,0,0,0-17.86,11.16,42.67,42.67,0,0,0-10.09,17,69.65,69.65,0,0,0-3.13,21.36,74,74,0,0,0,2.59,19.29,43.18,43.18,0,0,0,9.27,17.36Q1465,116.19,1476.72,120.87Z" fill="#f08300"/><rect x="1449.73" y="171.85" width="68.43" height="32.52" fill="#f08300"/><circle cx="146.23" cy="178.65" r="20.66" fill="#f08300"/></g><g id="Slogan"><path d="M1113.38,245.93v6.18h-18.1a4.59,4.59,0,0,0-3.51,1.18,4.21,4.21,0,0,0-1.09,3,5.11,5.11,0,0,0,.23,1.55,3.36,3.36,0,0,0,.84,1.36,4.12,4.12,0,0,0,1.59.94,8,8,0,0,0,2.57.34h8.26a16,16,0,0,1,5.92.92,9.6,9.6,0,0,1,3.63,2.38,8,8,0,0,1,1.84,3.34,15.3,15.3,0,0,1,.49,3.77,13,13,0,0,1-.63,4.14,8.34,8.34,0,0,1-2,3.27,9.39,9.39,0,0,1-3.47,2.17,15,15,0,0,1-5.16.78h-19.67v-6.17H1105a4.9,4.9,0,0,0,3.69-1.23,4.38,4.38,0,0,0,1.18-3.17,5.47,5.47,0,0,0-.26-1.65,3.49,3.49,0,0,0-.89-1.41,4.69,4.69,0,0,0-1.7-1,8.65,8.65,0,0,0-2.7-.36h-8.22a16,16,0,0,1-5.8-.89,8.87,8.87,0,0,1-3.53-2.36,8.08,8.08,0,0,1-1.78-3.29,13.64,13.64,0,0,1-.5-3.67,13.13,13.13,0,0,1,.6-4,8.09,8.09,0,0,1,1.94-3.22,9,9,0,0,1,3.43-2.12,14.86,14.86,0,0,1,5-.76Z"/><path d="M1129.08,245.93v35.32h-6.18V245.93Z"/><path d="M1164.87,245.93v6.18h-18.1a4.58,4.58,0,0,0-3.51,1.18,4.22,4.22,0,0,0-1.1,3,5.12,5.12,0,0,0,.24,1.55,3.24,3.24,0,0,0,.83,1.36,4.16,4.16,0,0,0,1.6.94,8,8,0,0,0,2.56.34h8.27a15.94,15.94,0,0,1,5.91.92,9.57,9.57,0,0,1,3.64,2.38,7.84,7.84,0,0,1,1.83,3.34,14.86,14.86,0,0,1,.5,3.77,13,13,0,0,1-.63,4.14,8.46,8.46,0,0,1-2,3.27,9.43,9.43,0,0,1-3.48,2.17,15,15,0,0,1-5.15.78h-19.68v-6.17h19.89a4.92,4.92,0,0,0,3.69-1.23,4.42,4.42,0,0,0,1.17-3.17,5.17,5.17,0,0,0-.26-1.65,3.29,3.29,0,0,0-.89-1.41,4.61,4.61,0,0,0-1.7-1,8.54,8.54,0,0,0-2.69-.36h-8.22a16.13,16.13,0,0,1-5.81-.89,8.94,8.94,0,0,1-3.53-2.36,8.2,8.2,0,0,1-1.78-3.29,14,14,0,0,1-.49-3.67,13.13,13.13,0,0,1,.6-4,8.09,8.09,0,0,1,1.94-3.22,9,9,0,0,1,3.42-2.12,14.94,14.94,0,0,1,5-.76Z"/><path d="M1196.89,245.93v6.18h-10.31v29.14h-6.22V252.11h-10.31v-6.18Z"/><path d="M1230.9,245.93v6.18h-17.69a5.78,5.78,0,0,0-4.08,1.2,4.29,4.29,0,0,0-1.25,3.24c0,2.8,1.79,4.19,5.39,4.19h17.37v5.6h-17.53q-5.38,0-5.39,4.29a4.14,4.14,0,0,0,1.31,3.27,5.9,5.9,0,0,0,4,1.18H1231v6.17h-17.89a17.26,17.26,0,0,1-5.37-.73,10.35,10.35,0,0,1-3.66-2,7.58,7.58,0,0,1-2.09-3.07,10.83,10.83,0,0,1-.66-3.82,9.14,9.14,0,0,1,1.31-5.05,8.18,8.18,0,0,1,3.77-3.06q-5-2-5-7.95a10.82,10.82,0,0,1,.68-3.87,7.65,7.65,0,0,1,2.12-3.06,9.88,9.88,0,0,1,3.66-2,17.85,17.85,0,0,1,5.36-.71Z"/><path d="M1245,281.25h-6.12v-28a7.88,7.88,0,0,1,2.09-5.73q2.09-2.17,6.38-2.18a9.17,9.17,0,0,1,6,1.81,8.88,8.88,0,0,1,2.93,5.15l5,21.61a2.25,2.25,0,0,0,2.35,2,2.31,2.31,0,0,0,2.36-2l5-21.61a9.2,9.2,0,0,1,2.8-5.15,8.67,8.67,0,0,1,5.88-1.81q4.29,0,6.39,2.18a7.92,7.92,0,0,1,2.09,5.73v28H1282V253.52a2.12,2.12,0,0,0-.66-1.65,2.62,2.62,0,0,0-1.85-.6,2.51,2.51,0,0,0-1.68.5,2.54,2.54,0,0,0-.78,1.38l-5.08,21.61a10.33,10.33,0,0,1-2.77,5.31,7.89,7.89,0,0,1-5.6,1.81,8.22,8.22,0,0,1-5.73-1.83,9.85,9.85,0,0,1-2.8-5.29l-5-21.61a2.46,2.46,0,0,0-.81-1.38,2.52,2.52,0,0,0-1.65-.5,2.67,2.67,0,0,0-1.86.6,2.11,2.11,0,0,0-.65,1.65Z"/><path d="M1300.12,281.25h-6.8l12.4-31.39a6.64,6.64,0,0,1,2.8-3.53,9.23,9.23,0,0,1,4.63-1,9.13,9.13,0,0,1,4.58,1,6.44,6.44,0,0,1,2.75,3.53l11.93,31.39h-6.86l-10.72-28.41a1.74,1.74,0,0,0-1.73-1.2,1.81,1.81,0,0,0-1.78,1.2Z"/><path d="M1379.92,245.93v6.18h-13.66q-5.13,0-7.46,2.69t-2.33,8.82q0,6.08,2.31,8.76c1.53,1.8,4,2.7,7.48,2.7h13.66v6.17h-13.66q-7.74,0-11.85-4.37t-4.11-13.26c0-6,1.37-10.4,4.11-13.32s6.69-4.37,11.85-4.37Z"/><path d="M1406.24,245.93q7.74,0,11.85,4.4t4.11,13.34q0,8.9-4.11,13.24t-11.85,4.34h-4.82q-7.74,0-11.85-4.34t-4.11-13.24q0-8.94,4.11-13.34t11.85-4.4Zm-4.82,6.18c-3.42,0-5.9.9-7.45,2.72s-2.33,4.76-2.33,8.84.77,7,2.3,8.74,4,2.67,7.48,2.67h4.82q5.07,0,7.4-2.7t2.33-8.76q0-6.08-2.31-8.79c-1.53-1.82-4-2.72-7.42-2.72Z"/><path d="M1435.59,281.25h-6.17V253a7.87,7.87,0,0,1,2-5.58q2-2.11,6.13-2.12a8,8,0,0,1,5.57,1.76,11.9,11.9,0,0,1,3,4.79l10.3,22.55a3.06,3.06,0,0,0,.84,1,2.19,2.19,0,0,0,1.41.42,2.08,2.08,0,0,0,1.55-.55,2,2,0,0,0,.55-1.44V245.93H1467v28.21a7.83,7.83,0,0,1-2,5.62q-2,2.12-6.1,2.12a10.81,10.81,0,0,1-3.22-.44,7.14,7.14,0,0,1-2.4-1.31,8.36,8.36,0,0,1-1.75-2.07,13.94,13.94,0,0,1-1.26-2.72l-10.31-22.55a2.28,2.28,0,0,0-2.19-1.52,2.14,2.14,0,0,0-1.6.55,2,2,0,0,0-.55,1.49Z"/><path d="M1499.53,245.93v6.18h-10.31v29.14H1483V252.11h-10.3v-6.18Z"/><path d="M1505.18,281.25h-6.8l12.4-31.39a6.64,6.64,0,0,1,2.8-3.53,9.23,9.23,0,0,1,4.63-1,9.13,9.13,0,0,1,4.58,1,6.38,6.38,0,0,1,2.74,3.53l11.93,31.39h-6.85l-10.73-28.41a1.72,1.72,0,0,0-1.72-1.2,1.81,1.81,0,0,0-1.78,1.2Z"/><path d="M1561.17,245.93a17.85,17.85,0,0,1,5.36.71,9.88,9.88,0,0,1,3.66,2,7.65,7.65,0,0,1,2.12,3.06,10.76,10.76,0,0,1,.68,3.92,8.7,8.7,0,0,1-1.28,5,8,8,0,0,1-3.8,2.88,8,8,0,0,1,5.24,8.06,10.93,10.93,0,0,1-.68,3.92,7.86,7.86,0,0,1-2.12,3.07,10.35,10.35,0,0,1-3.66,2,17.26,17.26,0,0,1-5.37.73h-15.69q-2.94,0-2.94-2.88V248.81q0-2.88,2.94-2.88Zm-12.41,14.92h12.56c3.63,0,5.44-1.42,5.44-4.24a4.44,4.44,0,0,0-1.28-3.35,5.67,5.67,0,0,0-4.1-1.26h-11.93q-.69,0-.69.63Zm0,13.7c0,.39.23.58.69.58h12a6,6,0,0,0,4.13-1.2,4.39,4.39,0,0,0,1.31-3.41q0-4.54-5.44-4.55h-12.72Z"/><path d="M1586.12,245.93V269a8.4,8.4,0,0,0,.34,2.38,4.53,4.53,0,0,0,1.18,1.94,6.1,6.1,0,0,0,2.22,1.28,11.13,11.13,0,0,0,3.48.47h13.71v6.17H1593a17.36,17.36,0,0,1-6-.91,10.83,10.83,0,0,1-4.06-2.54,9.79,9.79,0,0,1-2.28-3.85,16.41,16.41,0,0,1-.7-4.89V245.93Z"/><path d="M1641.06,245.93v6.18h-17.68a5.77,5.77,0,0,0-4.08,1.2,4.26,4.26,0,0,0-1.26,3.24c0,2.8,1.8,4.19,5.39,4.19h17.37v5.6h-17.53q-5.38,0-5.39,4.29a4.17,4.17,0,0,0,1.31,3.27,5.91,5.91,0,0,0,4,1.18h17.9v6.17h-17.9a17.19,17.19,0,0,1-5.36-.73,10.26,10.26,0,0,1-3.66-2,7.61,7.61,0,0,1-2.1-3.07,11.06,11.06,0,0,1-.65-3.82,9.05,9.05,0,0,1,1.31-5.05,8.15,8.15,0,0,1,3.76-3.06q-5-2-5-7.95a10.82,10.82,0,0,1,.68-3.87,7.75,7.75,0,0,1,2.12-3.06,9.88,9.88,0,0,1,3.66-2,17.92,17.92,0,0,1,5.37-.71Z"/><path d="M1669.27,245.93v35.32h-6.18V245.93Z"/><path d="M1683.91,281.25h-6.17V253a7.83,7.83,0,0,1,2-5.58q2-2.11,6.12-2.12a8,8,0,0,1,5.57,1.76,11.69,11.69,0,0,1,3,4.79l10.31,22.55a3.06,3.06,0,0,0,.84,1,2.19,2.19,0,0,0,1.41.42,2.06,2.06,0,0,0,1.54-.55,1.91,1.91,0,0,0,.55-1.44V245.93h6.23v28.21a7.83,7.83,0,0,1-2,5.62q-2,2.12-6.1,2.12a10.76,10.76,0,0,1-3.22-.44,7.29,7.29,0,0,1-2.41-1.31,8.58,8.58,0,0,1-1.75-2.07,13.36,13.36,0,0,1-1.25-2.72l-10.31-22.55a2.29,2.29,0,0,0-2.2-1.52,2.16,2.16,0,0,0-1.6.55,2,2,0,0,0-.55,1.49Z"/><path d="M1747.86,245.93v6.18h-10.31v29.14h-6.23V252.11H1721v-6.18Z"/><path d="M1781.86,245.93v6.18h-17.68a5.78,5.78,0,0,0-4.08,1.2,4.26,4.26,0,0,0-1.26,3.24c0,2.8,1.8,4.19,5.39,4.19h17.37v5.6h-17.53q-5.38,0-5.39,4.29a4.17,4.17,0,0,0,1.31,3.27,5.91,5.91,0,0,0,4,1.18h17.9v6.17H1764a17.19,17.19,0,0,1-5.36-.73,10.26,10.26,0,0,1-3.66-2,7.61,7.61,0,0,1-2.1-3.07,11.06,11.06,0,0,1-.65-3.82,9.05,9.05,0,0,1,1.31-5.05,8.13,8.13,0,0,1,3.77-3.06q-5-2-5-7.95a10.82,10.82,0,0,1,.68-3.87,7.75,7.75,0,0,1,2.12-3.06,9.84,9.84,0,0,1,3.67-2,17.85,17.85,0,0,1,5.36-.71Z"/><path d="M1819.12,245.93v6.18h-14.55q-5.13,0-7.45,2.69c-1.56,1.8-2.33,4.74-2.33,8.82s.77,7,2.3,8.76,4,2.7,7.48,2.7h5.86a4.62,4.62,0,0,0,3.77-1.39,5.4,5.4,0,0,0,1.15-3.58,4.81,4.81,0,0,0-1.07-3.33,4.24,4.24,0,0,0-3.27-1.17h-7.85v-5.39h8.48q4.75,0,7.06,2.69a10.9,10.9,0,0,1,2.3,7.3,15,15,0,0,1-.6,4.32,9,9,0,0,1-1.94,3.5,9.25,9.25,0,0,1-3.4,2.36,13.22,13.22,0,0,1-5,.86h-5.44q-7.74,0-11.85-4.37t-4.11-13.26c0-6,1.37-10.4,4.11-13.32s6.69-4.37,11.85-4.37Z"/><path d="M1847.11,245.93a13.63,13.63,0,0,1,5.13.87,9.88,9.88,0,0,1,3.53,2.3,8.75,8.75,0,0,1,2,3.37,12.47,12.47,0,0,1,.66,4,13.31,13.31,0,0,1-.42,3.32,11.11,11.11,0,0,1-1.31,3.09,9.53,9.53,0,0,1-2.3,2.54,10,10,0,0,1-3.46,1.67l8.22,14.13h-6.86l-8-13.65h-9.21a.78.78,0,0,0-.89.88v12.77H1828v-14a5.9,5.9,0,0,1,1.31-4.29,5.83,5.83,0,0,1,4.24-1.31h13.76a5.51,5.51,0,0,0,2.25-.42,4,4,0,0,0,1.52-1.1,4.56,4.56,0,0,0,.86-1.56,6,6,0,0,0,.29-1.84,4.89,4.89,0,0,0-1.18-3.27,4.65,4.65,0,0,0-3.74-1.38H1828v-6.18Z"/><path d="M1868.93,281.25h-6.8l12.4-31.39a6.64,6.64,0,0,1,2.8-3.53,9.23,9.23,0,0,1,4.63-1,9.13,9.13,0,0,1,4.58,1,6.44,6.44,0,0,1,2.75,3.53l11.93,31.39h-6.86l-10.73-28.41a1.72,1.72,0,0,0-1.72-1.2,1.81,1.81,0,0,0-1.78,1.2Z"/><path d="M1910.16,245.93V269a8.06,8.06,0,0,0,.34,2.38,4.53,4.53,0,0,0,1.18,1.94,6.1,6.1,0,0,0,2.22,1.28,11.13,11.13,0,0,0,3.48.47h13.71v6.17H1917a17.36,17.36,0,0,1-6-.91,10.83,10.83,0,0,1-4.06-2.54,9.56,9.56,0,0,1-2.28-3.85,16.1,16.1,0,0,1-.7-4.89V245.93Z"/></g></svg>